# Blender v2.78 (sub 0) OBJ File: 'capsule.blend'
# www.blender.org
mtllib capsule.mtl
o Cylinder_Cylinder.002
v 0.000000 -1.000000 -1.000000
v 0.000000 0.000000 -0.275221
v 0.195090 -1.000000 -0.980785
v 0.053693 0.000000 -0.269933
v 0.382683 -1.000000 -0.923880
v 0.105322 0.000000 -0.254271
v 0.555570 -1.000000 -0.831470
v 0.152904 0.000000 -0.228838
v 0.707107 -1.000000 -0.707107
v 0.194610 0.000000 -0.194611
v 0.831470 -1.000000 -0.555570
v 0.228838 0.000000 -0.152905
v 0.923880 -1.000000 -0.382683
v 0.254271 0.000000 -0.105323
v 0.980785 -1.000000 -0.195090
v 0.269932 0.000000 -0.053693
v 1.000000 -1.000000 -0.000000
v 0.275221 0.000000 -0.000000
v 0.980785 -1.000000 0.195090
v 0.269932 0.000000 0.053693
v 0.923880 -1.000000 0.382683
v 0.254271 0.000000 0.105322
v 0.831470 -1.000000 0.555570
v 0.228838 0.000000 0.152904
v 0.707107 -1.000000 0.707107
v 0.194610 0.000000 0.194610
v 0.555570 -1.000000 0.831470
v 0.152904 0.000000 0.228837
v 0.382683 -1.000000 0.923880
v 0.105322 0.000000 0.254270
v 0.195090 -1.000000 0.980785
v 0.053693 0.000000 0.269932
v -0.000000 -1.000000 1.000000
v -0.000000 0.000000 0.275220
v -0.195091 -1.000000 0.980785
v -0.053693 0.000000 0.269932
v -0.382684 -1.000000 0.923879
v -0.105322 0.000000 0.254270
v -0.555571 -1.000000 0.831469
v -0.152904 0.000000 0.228837
v -0.707107 -1.000000 0.707106
v -0.194610 0.000000 0.194610
v -0.831470 -1.000000 0.555570
v -0.228838 0.000000 0.152904
v -0.923880 -1.000000 0.382683
v -0.254271 0.000000 0.105322
v -0.980785 -1.000000 0.195089
v -0.269932 0.000000 0.053692
v -1.000000 -1.000000 -0.000001
v -0.275221 0.000000 -0.000000
v -0.980785 -1.000000 -0.195091
v -0.269932 0.000000 -0.053693
v -0.923879 -1.000000 -0.382684
v -0.254270 0.000000 -0.105323
v -0.831469 -1.000000 -0.555571
v -0.228837 0.000000 -0.152905
v -0.707106 -1.000000 -0.707108
v -0.194610 0.000000 -0.194611
v -0.555569 -1.000000 -0.831470
v -0.152904 0.000000 -0.228838
v -0.382682 -1.000000 -0.923880
v -0.105322 0.000000 -0.254271
v -0.195089 -1.000000 -0.980786
v -0.053692 0.000000 -0.269933
v 0.000000 -1.232713 -0.500000
v 0.097545 -1.232713 -0.490393
v 0.191342 -1.232713 -0.461940
v 0.277785 -1.232713 -0.415735
v 0.353553 -1.232713 -0.353554
v 0.415735 -1.232713 -0.277785
v 0.461940 -1.232713 -0.191342
v 0.490393 -1.232713 -0.097545
v 0.500000 -1.232713 -0.000000
v 0.490393 -1.232713 0.097545
v 0.461940 -1.232713 0.191342
v 0.415735 -1.232713 0.277785
v 0.353553 -1.232713 0.353553
v 0.277785 -1.232713 0.415735
v 0.191342 -1.232713 0.461940
v 0.097545 -1.232713 0.490393
v -0.000000 -1.232713 0.500000
v -0.097545 -1.232713 0.490392
v -0.191342 -1.232713 0.461940
v -0.277785 -1.232713 0.415734
v -0.353554 -1.232713 0.353553
v -0.415735 -1.232713 0.277785
v -0.461940 -1.232713 0.191341
v -0.490393 -1.232713 0.097545
v -0.500000 -1.232713 -0.000001
v -0.490392 -1.232713 -0.097546
v -0.461939 -1.232713 -0.191342
v -0.415734 -1.232713 -0.277786
v -0.353553 -1.232713 -0.353554
v -0.277784 -1.232713 -0.415735
v -0.191341 -1.232713 -0.461940
v -0.097544 -1.232713 -0.490393
v 0.000000 -1.332713 -0.250000
v 0.048773 -1.332713 -0.245197
v 0.095671 -1.332713 -0.230970
v 0.138893 -1.332713 -0.207868
v 0.176777 -1.332713 -0.176777
v 0.207868 -1.332713 -0.138893
v 0.230970 -1.332713 -0.095671
v 0.245196 -1.332713 -0.048773
v 0.250000 -1.332713 -0.000000
v 0.245196 -1.332713 0.048772
v 0.230970 -1.332713 0.095671
v 0.207868 -1.332713 0.138892
v 0.176777 -1.332713 0.176776
v 0.138893 -1.332713 0.207867
v 0.095671 -1.332713 0.230970
v 0.048773 -1.332713 0.245196
v -0.000000 -1.332713 0.250000
v -0.048773 -1.332713 0.245196
v -0.095671 -1.332713 0.230970
v -0.138893 -1.332713 0.207867
v -0.176777 -1.332713 0.176776
v -0.207867 -1.332713 0.138892
v -0.230970 -1.332713 0.095670
v -0.245196 -1.332713 0.048772
v -0.250000 -1.332713 -0.000000
v -0.245196 -1.332713 -0.048773
v -0.230970 -1.332713 -0.095671
v -0.207867 -1.332713 -0.138893
v -0.176776 -1.332713 -0.176777
v -0.138892 -1.332713 -0.207868
v -0.095670 -1.332713 -0.230970
v -0.048772 -1.332713 -0.245197
vn 0.0795 0.5850 -0.8071
vn 0.2354 0.5850 -0.7761
vn 0.3823 0.5850 -0.7153
vn 0.5145 0.5850 -0.6269
vn 0.6269 0.5850 -0.5145
vn 0.7153 0.5850 -0.3823
vn 0.7761 0.5850 -0.2354
vn 0.8071 0.5850 -0.0795
vn 0.8071 0.5850 0.0795
vn 0.7761 0.5850 0.2354
vn 0.7153 0.5850 0.3823
vn 0.6269 0.5850 0.5145
vn 0.5145 0.5850 0.6269
vn 0.3823 0.5850 0.7153
vn 0.2354 0.5850 0.7761
vn 0.0795 0.5850 0.8071
vn -0.0795 0.5850 0.8071
vn -0.2354 0.5850 0.7761
vn -0.3823 0.5850 0.7153
vn -0.5145 0.5850 0.6269
vn -0.6269 0.5850 0.5145
vn -0.7153 0.5850 0.3823
vn -0.7761 0.5850 0.2354
vn -0.8071 0.5850 0.0795
vn -0.8071 0.5850 -0.0795
vn -0.7761 0.5850 -0.2354
vn -0.7153 0.5850 -0.3823
vn -0.6269 0.5850 -0.5145
vn -0.5145 0.5850 -0.6269
vn -0.3823 0.5850 -0.7153
vn 0.0000 1.0000 0.0000
vn -0.2354 0.5850 -0.7761
vn -0.0795 0.5850 -0.8071
vn 0.2688 -0.9058 -0.3275
vn -0.3289 -0.9279 0.1758
vn 0.2688 -0.9058 0.3275
vn -0.3736 -0.9058 0.1997
vn -0.1230 -0.9058 -0.4054
vn 0.4216 -0.9058 0.0415
vn -0.1230 -0.9058 0.4054
vn -0.3736 -0.9058 -0.1997
vn 0.3275 -0.9058 -0.2688
vn 0.1997 -0.9058 0.3736
vn -0.4054 -0.9058 0.1230
vn 0.0415 -0.9058 -0.4216
vn -0.0415 -0.9058 -0.4216
vn 0.4054 -0.9058 0.1230
vn -0.1997 -0.9058 0.3736
vn -0.3275 -0.9058 -0.2688
vn 0.3736 -0.9058 -0.1997
vn 0.1230 -0.9058 0.4054
vn -0.4216 -0.9058 0.0415
vn 0.1230 -0.9058 -0.4054
vn 0.3736 -0.9058 0.1997
vn -0.2688 -0.9058 0.3275
vn -0.2688 -0.9058 -0.3275
vn 0.4054 -0.9058 -0.1230
vn 0.0415 -0.9058 0.4216
vn -0.4216 -0.9058 -0.0415
vn 0.1997 -0.9058 -0.3736
vn 0.3275 -0.9058 0.2688
vn -0.3275 -0.9058 0.2688
vn -0.1997 -0.9058 -0.3736
vn 0.4216 -0.9058 -0.0415
vn -0.0415 -0.9058 0.4216
vn -0.4054 -0.9058 -0.1230
vn 0.0000 -1.0000 0.0000
vn 0.3711 -0.9279 0.0366
vn -0.3569 -0.9279 0.1083
vn 0.3569 -0.9279 0.1083
vn -0.3711 -0.9279 0.0366
vn 0.3289 -0.9279 0.1758
vn -0.3711 -0.9279 -0.0366
vn 0.2883 -0.9279 0.2366
vn -0.3569 -0.9279 -0.1083
vn 0.2366 -0.9279 0.2883
vn -0.3289 -0.9279 -0.1758
vn 0.1758 -0.9279 0.3289
vn 0.0366 -0.9279 -0.3711
vn -0.2883 -0.9279 -0.2366
vn 0.1083 -0.9279 0.3569
vn 0.1083 -0.9279 -0.3569
vn -0.2366 -0.9279 -0.2883
vn 0.0366 -0.9279 0.3711
vn 0.1758 -0.9279 -0.3289
vn -0.1758 -0.9279 -0.3289
vn -0.0366 -0.9279 0.3711
vn 0.2366 -0.9279 -0.2883
vn -0.1083 -0.9279 -0.3569
vn -0.1083 -0.9279 0.3569
vn 0.2883 -0.9279 -0.2366
vn -0.0366 -0.9279 -0.3711
vn -0.1758 -0.9279 0.3289
vn 0.3289 -0.9279 -0.1758
vn -0.2366 -0.9279 0.2883
vn 0.3569 -0.9279 -0.1083
vn -0.2883 -0.9279 0.2366
vn 0.3711 -0.9279 -0.0366
usemtl Material.001
s off
f 1//1 2//1 4//1 3//1
f 3//2 4//2 6//2 5//2
f 5//3 6//3 8//3 7//3
f 7//4 8//4 10//4 9//4
f 9//5 10//5 12//5 11//5
f 11//6 12//6 14//6 13//6
f 13//7 14//7 16//7 15//7
f 15//8 16//8 18//8 17//8
f 17//9 18//9 20//9 19//9
f 19//10 20//10 22//10 21//10
f 21//11 22//11 24//11 23//11
f 23//12 24//12 26//12 25//12
f 25//13 26//13 28//13 27//13
f 27//14 28//14 30//14 29//14
f 29//15 30//15 32//15 31//15
f 31//16 32//16 34//16 33//16
f 33//17 34//17 36//17 35//17
f 35//18 36//18 38//18 37//18
f 37//19 38//19 40//19 39//19
f 39//20 40//20 42//20 41//20
f 41//21 42//21 44//21 43//21
f 43//22 44//22 46//22 45//22
f 45//23 46//23 48//23 47//23
f 47//24 48//24 50//24 49//24
f 49//25 50//25 52//25 51//25
f 51//26 52//26 54//26 53//26
f 53//27 54//27 56//27 55//27
f 55//28 56//28 58//28 57//28
f 57//29 58//29 60//29 59//29
f 59//30 60//30 62//30 61//30
f 4//31 2//31 64//31 62//31 60//31 58//31 56//31 54//31 52//31 50//31 48//31 46//31 44//31 42//31 40//31 38//31 36//31 34//31 32//31 30//31 28//31 26//31 24//31 22//31 20//31 18//31 16//31 14//31 12//31 10//31 8//31 6//31
f 61//32 62//32 64//32 63//32
f 63//33 64//33 2//33 1//33
f 7//34 9//34 69//34 68//34
f 86//35 87//35 119//35 118//35
f 25//36 27//36 78//36 77//36
f 43//37 45//37 87//37 86//37
f 61//38 63//38 96//38 95//38
f 17//39 19//39 74//39 73//39
f 35//40 37//40 83//40 82//40
f 53//41 55//41 92//41 91//41
f 9//42 11//42 70//42 69//42
f 27//43 29//43 79//43 78//43
f 45//44 47//44 88//44 87//44
f 1//45 3//45 66//45 65//45
f 63//46 1//46 65//46 96//46
f 19//47 21//47 75//47 74//47
f 37//48 39//48 84//48 83//48
f 55//49 57//49 93//49 92//49
f 11//50 13//50 71//50 70//50
f 29//51 31//51 80//51 79//51
f 47//52 49//52 89//52 88//52
f 3//53 5//53 67//53 66//53
f 21//54 23//54 76//54 75//54
f 39//55 41//55 85//55 84//55
f 57//56 59//56 94//56 93//56
f 13//57 15//57 72//57 71//57
f 31//58 33//58 81//58 80//58
f 49//59 51//59 90//59 89//59
f 5//60 7//60 68//60 67//60
f 23//61 25//61 77//61 76//61
f 41//62 43//62 86//62 85//62
f 59//63 61//63 95//63 94//63
f 15//64 17//64 73//64 72//64
f 33//65 35//65 82//65 81//65
f 51//66 53//66 91//66 90//66
f 97//67 98//67 99//67 100//67 101//67 102//67 103//67 104//67 105//67 106//67 107//67 108//67 109//67 110//67 111//67 112//67 113//67 114//67 115//67 116//67 117//67 118//67 119//67 120//67 121//67 122//67 123//67 124//67 125//67 126//67 127//67 128//67
f 73//68 74//68 106//68 105//68
f 87//69 88//69 120//69 119//69
f 74//70 75//70 107//70 106//70
f 88//71 89//71 121//71 120//71
f 75//72 76//72 108//72 107//72
f 89//73 90//73 122//73 121//73
f 76//74 77//74 109//74 108//74
f 90//75 91//75 123//75 122//75
f 77//76 78//76 110//76 109//76
f 91//77 92//77 124//77 123//77
f 78//78 79//78 111//78 110//78
f 65//79 66//79 98//79 97//79
f 92//80 93//80 125//80 124//80
f 79//81 80//81 112//81 111//81
f 66//82 67//82 99//82 98//82
f 93//83 94//83 126//83 125//83
f 80//84 81//84 113//84 112//84
f 67//85 68//85 100//85 99//85
f 94//86 95//86 127//86 126//86
f 81//87 82//87 114//87 113//87
f 68//88 69//88 101//88 100//88
f 95//89 96//89 128//89 127//89
f 82//90 83//90 115//90 114//90
f 69//91 70//91 102//91 101//91
f 96//92 65//92 97//92 128//92
f 83//93 84//93 116//93 115//93
f 70//94 71//94 103//94 102//94
f 84//95 85//95 117//95 116//95
f 71//96 72//96 104//96 103//96
f 85//97 86//97 118//97 117//97
f 72//98 73//98 105//98 104//98
